<svg xmlns="http://www.w3.org/2000/svg" viewBox="0 0 512 512" role="img" aria-label="Tower boss 49">
  <defs>
    <linearGradient id="armor" x1="0" y1="0" x2="1" y2="1"><stop stop-color="#fff8b0"/><stop offset=".38" stop-color="#ffe14b"/><stop offset="1" stop-color="#5140b8"/></linearGradient>
    <radialGradient id="wing"><stop stop-color="#ffe14b" stop-opacity=".95"/><stop offset="1" stop-color="#5140b8" stop-opacity=".35"/></radialGradient>
    <filter id="aura" x="-60%" y="-60%" width="220%" height="220%"><feGaussianBlur stdDeviation="12" result="b"/><feMerge><feMergeNode in="b"/><feMergeNode in="SourceGraphic"/></feMerge></filter>
    <filter id="shadow"><feDropShadow dx="0" dy="16" stdDeviation="12" flood-opacity=".75"/></filter>
  </defs>
  <ellipse cx="256" cy="449" rx="173" ry="28" fill="#000" opacity=".48"/>
  <g opacity=".55" filter="url(#aura)"><polygon points="256.0,38.0 394.6,117.4 474.0,256.0 394.6,394.6 256.0,474.0 117.4,394.6 38.0,256.0 117.4,117.4" fill="none" stroke="#ffe14b" stroke-width="5"/></g>
  <g filter="url(#shadow)"><polygon points="256.0,53.0 344.2,134.6 449.1,193.3 398.7,302.4 375.3,420.2 256.0,406.0 136.7,420.2 113.3,302.4 62.9,193.3 167.8,134.6" fill="url(#wing)" opacity=".82"/><ellipse cx="256" cy="286" rx="112" ry="126" fill="url(#armor)" stroke="#fff8b0" stroke-width="8"/>
    <path d="M182 267 Q256 169 330 267 L308 350 Q256 390 204 350Z" fill="#5140b8" opacity=".72"/>
    <circle cx="218" cy="272" r="13" fill="#fffb9e"/><circle cx="294" cy="272" r="13" fill="#fffb9e"/>
    <path d="M222 326 Q256 348 290 326" fill="none" stroke="#fff8b0" stroke-width="9" stroke-linecap="round"/><path d="M256 58 L292 135 L378 148 L316 207 L331 291 L256 251 L181 291 L196 207 L134 148 L220 135Z" fill="none" stroke="#fff8b0" stroke-width="9"/></g>
  <g fill="#fff8b0" opacity=".86"><circle cx="194.9786817583874" cy="93.05093212891384" r="3"/><circle cx="444.9964776125938" cy="222.17203154145506" r="4"/><circle cx="255.14071807105003" cy="465.99824197970463" r="5"/><circle cx="84.97855794318409" cy="223.9427643611124" r="6"/><circle cx="324.8030673762613" cy="76.7511843285495" r="3"/><circle cx="435.2818221803985" cy="365.3527696753767" r="4"/><circle cx="140.10653346526368" cy="385.7871504216113" r="5"/></g>
  <path d="M36 470 H476" stroke="#ffe14b" stroke-width="4" opacity=".7"/>
</svg>