<svg xmlns="http://www.w3.org/2000/svg" viewBox="0 0 512 512" role="img" aria-label="Tower boss 35">
  <defs>
    <linearGradient id="armor" x1="0" y1="0" x2="1" y2="1"><stop stop-color="#ffd35a"/><stop offset=".38" stop-color="#ff6a2a"/><stop offset="1" stop-color="#7d1010"/></linearGradient>
    <radialGradient id="wing"><stop stop-color="#ff6a2a" stop-opacity=".95"/><stop offset="1" stop-color="#7d1010" stop-opacity=".35"/></radialGradient>
    <filter id="aura" x="-60%" y="-60%" width="220%" height="220%"><feGaussianBlur stdDeviation="12" result="b"/><feMerge><feMergeNode in="b"/><feMergeNode in="SourceGraphic"/></feMerge></filter>
    <filter id="shadow"><feDropShadow dx="0" dy="16" stdDeviation="12" flood-opacity=".75"/></filter>
  </defs>
  <ellipse cx="256" cy="449" rx="173" ry="28" fill="#000" opacity=".48"/>
  <g opacity=".55" filter="url(#aura)"><polygon points="256.0,38.0 394.6,117.4 474.0,256.0 394.6,394.6 256.0,474.0 117.4,394.6 38.0,256.0 117.4,117.4" fill="none" stroke="#ff6a2a" stroke-width="5"/></g>
  <g filter="url(#shadow)"><path d="M196 188 L142 70 L238 164 M316 188 L370 70 L274 164" fill="url(#armor)" stroke="#ffd35a" stroke-width="7"/><ellipse cx="256" cy="286" rx="112" ry="126" fill="url(#armor)" stroke="#ffd35a" stroke-width="8"/>
    <path d="M182 267 Q256 183 330 267 L308 350 Q256 390 204 350Z" fill="#7d1010" opacity=".72"/>
    <circle cx="218" cy="272" r="13" fill="#fffb9e"/><circle cx="294" cy="272" r="13" fill="#fffb9e"/>
    <path d="M222 326 Q256 348 290 326" fill="none" stroke="#ffd35a" stroke-width="9" stroke-linecap="round"/><path d="M148 347 Q36 404 108 466 Q181 448 206 366 M364 347 Q476 404 404 466 Q331 448 306 366" fill="url(#wing)"/></g>
  <g fill="#ffd35a" opacity=".86"><circle cx="415.07136949341725" cy="326.5145333068916" r="3"/><circle cx="147.8324210289167" cy="414.63093916236664" r="4"/><circle cx="106.65885470296317" cy="108.36117610408388" r="5"/><circle cx="398.6260775439315" cy="156.3315395702711" r="6"/><circle cx="335.816241030445" cy="430.6235026214109" r="3"/><circle cx="52.40012760559202" cy="307.4498975798863" r="4"/></g>
  <path d="M36 470 H476" stroke="#ff6a2a" stroke-width="4" opacity=".7"/>
</svg>