<svg xmlns="http://www.w3.org/2000/svg" viewBox="0 0 512 512" role="img" aria-label="Tower boss 33">
  <defs>
    <linearGradient id="armor" x1="0" y1="0" x2="1" y2="1"><stop stop-color="#ffd35a"/><stop offset=".38" stop-color="#ff6a2a"/><stop offset="1" stop-color="#7d1010"/></linearGradient>
    <radialGradient id="wing"><stop stop-color="#ff6a2a" stop-opacity=".95"/><stop offset="1" stop-color="#7d1010" stop-opacity=".35"/></radialGradient>
    <filter id="aura" x="-60%" y="-60%" width="220%" height="220%"><feGaussianBlur stdDeviation="12" result="b"/><feMerge><feMergeNode in="b"/><feMergeNode in="SourceGraphic"/></feMerge></filter>
    <filter id="shadow"><feDropShadow dx="0" dy="16" stdDeviation="12" flood-opacity=".75"/></filter>
  </defs>
  <ellipse cx="256" cy="449" rx="173" ry="28" fill="#000" opacity=".48"/>
  <g opacity=".55" filter="url(#aura)"><polygon points="256.0,38.0 323.0,71.8 396.1,89.0 425.7,158.0 470.7,218.1 449.0,290.0 444.8,365.0 382.0,406.1 330.6,460.9 256.0,452.0 181.4,460.9 130.0,406.1 67.2,365.0 63.0,290.0 41.3,218.1 86.3,158.0 115.9,89.0 189.0,71.8" fill="none" stroke="#ff6a2a" stroke-width="5"/></g>
  <g filter="url(#shadow)"><path d="M166 250 Q65 170 52 252 Q80 308 172 315Z" fill="url(#armor)"/><path d="M346 250 Q447 170 460 252 Q432 308 340 315Z" fill="url(#armor)"/><ellipse cx="256" cy="286" rx="112" ry="126" fill="url(#armor)" stroke="#ffd35a" stroke-width="8"/>
    <path d="M182 267 Q256 185 330 267 L308 350 Q256 390 204 350Z" fill="#7d1010" opacity=".72"/>
    <circle cx="218" cy="272" r="13" fill="#fffb9e"/><circle cx="294" cy="272" r="13" fill="#fffb9e"/>
    <path d="M222 326 Q256 348 290 326" fill="none" stroke="#ffd35a" stroke-width="9" stroke-linecap="round"/><path d="M160 350 L82 422 M352 350 L430 422" stroke="#ff6a2a" stroke-width="25" stroke-linecap="round"/></g>
  <g fill="#ffd35a" opacity=".86"><circle cx="343.67065011502024" cy="105.70077475778626" r="3"/><circle cx="401.698206501251" cy="381.04412270202397" r="4"/><circle cx="92.75382616497552" cy="388.1010474153213" r="5"/><circle cx="172.71280433957958" cy="103.22813400687008" r="6"/><circle cx="438.37803896035257" cy="195.98124538966084" r="3"/><circle cx="284.6224324433745" cy="464.0402758146231" r="4"/></g>
  <path d="M36 470 H476" stroke="#ff6a2a" stroke-width="4" opacity=".7"/>
</svg>