<svg xmlns="http://www.w3.org/2000/svg" viewBox="0 0 512 512" role="img" aria-label="Tower boss 7">
  <defs>
    <linearGradient id="armor" x1="0" y1="0" x2="1" y2="1"><stop stop-color="#ffe5a0"/><stop offset=".38" stop-color="#d9a441"/><stop offset="1" stop-color="#5c301e"/></linearGradient>
    <radialGradient id="wing"><stop stop-color="#d9a441" stop-opacity=".95"/><stop offset="1" stop-color="#5c301e" stop-opacity=".35"/></radialGradient>
    <filter id="aura" x="-60%" y="-60%" width="220%" height="220%"><feGaussianBlur stdDeviation="12" result="b"/><feMerge><feMergeNode in="b"/><feMergeNode in="SourceGraphic"/></feMerge></filter>
    <filter id="shadow"><feDropShadow dx="0" dy="16" stdDeviation="12" flood-opacity=".75"/></filter>
  </defs>
  <ellipse cx="256" cy="449" rx="173" ry="28" fill="#000" opacity=".48"/>
  <g opacity=".55" filter="url(#aura)"><polygon points="256.0,38.0 394.6,117.4 474.0,256.0 394.6,394.6 256.0,474.0 117.4,394.6 38.0,256.0 117.4,117.4" fill="none" stroke="#d9a441" stroke-width="5"/></g>
  <g filter="url(#shadow)"><path d="M256 438 C90 430 104 298 214 296 C332 294 366 192 254 142 C175 106 194 48 279 51 C409 57 442 230 338 315 C280 363 330 408 404 386" fill="none" stroke="url(#armor)" stroke-width="74" stroke-linecap="round"/><circle cx="272" cy="91" r="17" fill="#fffb9e"/><path d="M300 74 L363 43 L326 112Z" fill="#d9a441"/></g>
  <g fill="#ffe5a0" opacity=".86"><circle cx="323.3757295518589" cy="95.57397010661029" r="3"/><circle cx="416.7254346639262" cy="361.0301606782166" r="4"/><circle cx="111.32370095628377" cy="408.21290515266173" r="5"/></g>
  <path d="M36 470 H476" stroke="#d9a441" stroke-width="4" opacity=".7"/>
</svg>