<svg xmlns="http://www.w3.org/2000/svg" viewBox="0 0 512 512" role="img" aria-label="Tower boss 22">
  <defs>
    <linearGradient id="armor" x1="0" y1="0" x2="1" y2="1"><stop stop-color="#b8f5ff"/><stop offset=".38" stop-color="#41c7e8"/><stop offset="1" stop-color="#123d79"/></linearGradient>
    <radialGradient id="wing"><stop stop-color="#41c7e8" stop-opacity=".95"/><stop offset="1" stop-color="#123d79" stop-opacity=".35"/></radialGradient>
    <filter id="aura" x="-60%" y="-60%" width="220%" height="220%"><feGaussianBlur stdDeviation="12" result="b"/><feMerge><feMergeNode in="b"/><feMergeNode in="SourceGraphic"/></feMerge></filter>
    <filter id="shadow"><feDropShadow dx="0" dy="16" stdDeviation="12" flood-opacity=".75"/></filter>
  </defs>
  <ellipse cx="256" cy="449" rx="173" ry="28" fill="#000" opacity=".48"/>
  <g opacity=".55" filter="url(#aura)"><polygon points="256.0,38.0 371.2,97.4 463.3,188.6 442.4,316.6 384.1,432.4 256.0,452.0 127.9,432.4 69.6,316.6 48.7,188.6 140.8,97.4" fill="none" stroke="#41c7e8" stroke-width="5"/></g>
  <g filter="url(#shadow)"><path d="M205 280 Q75 170 52 310 Q140 270 185 350Z" fill="url(#wing)"/><path d="M307 280 Q437 170 460 310 Q372 270 327 350Z" fill="url(#wing)"/><ellipse cx="256" cy="286" rx="112" ry="126" fill="url(#armor)" stroke="#b8f5ff" stroke-width="8"/>
    <path d="M182 267 Q256 168 330 267 L308 350 Q256 390 204 350Z" fill="#123d79" opacity=".72"/>
    <circle cx="218" cy="272" r="13" fill="#9effff"/><circle cx="294" cy="272" r="13" fill="#9effff"/>
    <path d="M222 326 Q256 348 290 326" fill="none" stroke="#b8f5ff" stroke-width="9" stroke-linecap="round"/><path d="M225 160 L256 58 L287 160Z" fill="#b8f5ff"/></g>
  <g fill="#b8f5ff" opacity=".86"><circle cx="92.67100692627722" cy="196.0029998956296" r="3"/><circle cx="353.5986931405008" cy="90.6564331542761" r="4"/><circle cx="414.6460952346753" cy="393.5914839907992" r="5"/><circle cx="120.17314689288756" cy="364.75231480303717" r="6"/><circle cx="164.97223672194707" cy="86.94987041532693" r="3"/></g>
  <path d="M36 470 H476" stroke="#41c7e8" stroke-width="4" opacity=".7"/>
</svg>