<svg xmlns="http://www.w3.org/2000/svg" viewBox="0 0 512 512" role="img" aria-label="Tower boss 80">
  <defs>
    <linearGradient id="armor" x1="0" y1="0" x2="1" y2="1"><stop stop-color="#ffffff"/><stop offset=".38" stop-color="#ffed91"/><stop offset="1" stop-color="#4856b7"/></linearGradient>
    <radialGradient id="wing"><stop stop-color="#ffed91" stop-opacity=".95"/><stop offset="1" stop-color="#4856b7" stop-opacity=".35"/></radialGradient>
    <filter id="aura" x="-60%" y="-60%" width="220%" height="220%"><feGaussianBlur stdDeviation="12" result="b"/><feMerge><feMergeNode in="b"/><feMergeNode in="SourceGraphic"/></feMerge></filter>
    <filter id="shadow"><feDropShadow dx="0" dy="16" stdDeviation="12" flood-opacity=".75"/></filter>
  </defs>
  <ellipse cx="256" cy="449" rx="173" ry="28" fill="#000" opacity=".48"/>
  <g opacity=".55" filter="url(#aura)"><polygon points="256.0,38.0 341.0,79.4 426.4,120.1 447.1,212.4 468.5,304.5 409.2,378.2 350.6,452.4 256.0,452.0 161.4,452.4 102.8,378.2 43.5,304.5 64.9,212.4 85.6,120.1 171.0,79.4" fill="none" stroke="#ffed91" stroke-width="5"/></g>
  <g filter="url(#shadow)"><path d="M128 180 L170 55 L224 132 L256 28 L288 132 L342 55 L384 180Z" fill="url(#armor)" stroke="#ffffff" stroke-width="9"/><ellipse cx="256" cy="286" rx="112" ry="126" fill="url(#armor)" stroke="#ffffff" stroke-width="8"/>
    <path d="M182 267 Q256 166 330 267 L308 350 Q256 390 204 350Z" fill="#4856b7" opacity=".72"/>
    <circle cx="218" cy="272" r="13" fill="#9effff"/><circle cx="294" cy="272" r="13" fill="#9effff"/>
    <path d="M222 326 Q256 348 290 326" fill="none" stroke="#ffffff" stroke-width="9" stroke-linecap="round"/><path d="M128 384 Q256 466 384 384" fill="none" stroke="#ffed91" stroke-width="42"/></g>
  <g fill="#ffffff" opacity=".86"><circle cx="207.82450747093034" cy="423.19785261653794" r="3"/><circle cx="84.10645924888254" cy="170.4628113155224" r="4"/><circle cx="381.9062609617725" cy="87.92973656644062" r="5"/><circle cx="374.17790127135436" cy="383.71054635815324" r="6"/><circle cx="93.88482532240056" cy="358.8721057393666" r="3"/><circle cx="177.28012154170213" cy="61.31260766163925" r="4"/><circle cx="426.4257654614926" cy="220.91355722128088" r="5"/><circle cx="260.1919304025182" cy="447.95423339822554" r="6"/><circle cx="48.66119942460739" cy="222.67400750228768" r="3"/><circle cx="314.1206800898508" cy="91.99394356947295" r="4"/><circle cx="422.45155762490594" cy="351.6968074924269" r="5"/></g>
  <path d="M36 470 H476" stroke="#ffed91" stroke-width="4" opacity=".7"/>
</svg>