<svg xmlns="http://www.w3.org/2000/svg" viewBox="0 0 512 512" role="img" aria-label="Tower boss 96">
  <defs>
    <linearGradient id="armor" x1="0" y1="0" x2="1" y2="1"><stop stop-color="#b45cff"/><stop offset=".38" stop-color="#ff496d"/><stop offset="1" stop-color="#190a24"/></linearGradient>
    <radialGradient id="wing"><stop stop-color="#ff496d" stop-opacity=".95"/><stop offset="1" stop-color="#190a24" stop-opacity=".35"/></radialGradient>
    <filter id="aura" x="-60%" y="-60%" width="220%" height="220%"><feGaussianBlur stdDeviation="12" result="b"/><feMerge><feMergeNode in="b"/><feMergeNode in="SourceGraphic"/></feMerge></filter>
    <filter id="shadow"><feDropShadow dx="0" dy="16" stdDeviation="12" flood-opacity=".75"/></filter>
  </defs>
  <ellipse cx="256" cy="449" rx="173" ry="28" fill="#000" opacity=".48"/>
  <g opacity=".55" filter="url(#aura)"><polygon points="256.0,38.0 323.0,71.8 396.1,89.0 425.7,158.0 470.7,218.1 449.0,290.0 444.8,365.0 382.0,406.1 330.6,460.9 256.0,452.0 181.4,460.9 130.0,406.1 67.2,365.0 63.0,290.0 41.3,218.1 86.3,158.0 115.9,89.0 189.0,71.8" fill="none" stroke="#ff496d" stroke-width="5"/></g>
  <g filter="url(#shadow)"><path d="M174 202 L124 78 L226 172 M338 202 L388 78 L286 172" fill="#190a24" stroke="#b45cff" stroke-width="8"/><ellipse cx="256" cy="286" rx="112" ry="126" fill="url(#armor)" stroke="#b45cff" stroke-width="8"/>
    <path d="M182 267 Q256 178 330 267 L308 350 Q256 390 204 350Z" fill="#190a24" opacity=".72"/>
    <circle cx="218" cy="272" r="13" fill="#9effff"/><circle cx="294" cy="272" r="13" fill="#9effff"/>
    <path d="M222 326 Q256 348 290 326" fill="none" stroke="#b45cff" stroke-width="9" stroke-linecap="round"/><rect x="72" y="250" width="99" height="155" rx="42" fill="url(#armor)"/><rect x="341" y="250" width="99" height="155" rx="42" fill="url(#armor)"/></g>
  <g fill="#b45cff" opacity=".86"><circle cx="355.0840260001724" cy="399.03270881723927" r="3"/><circle cx="81.05136565529023" cy="335.10104513166084" r="4"/><circle cx="205.38362690130174" cy="52.19130839354918" r="5"/><circle cx="429.663263189478" cy="245.18006384574807" r="6"/><circle cx="233.20970223553172" cy="446.6426036535561" r="3"/><circle cx="55.39073848361386" cy="193.9039116058814" r="4"/><circle cx="336.5636161973367" cy="101.77450358255214" r="5"/><circle cx="407.3729904049836" cy="374.1110400252777" r="6"/><circle cx="99.09418232262502" cy="395.57279240236744" r="3"/><circle cx="165.67654876007367" cy="107.27987978720347" r="4"/><circle cx="435.37955169879785" cy="187.53850401621128" r="5"/><circle cx="294.29652089917244" cy="462.47851337855775" r="6"/></g>
  <path d="M36 470 H476" stroke="#ff496d" stroke-width="4" opacity=".7"/>
</svg>