<svg xmlns="http://www.w3.org/2000/svg" width="320" height="96" viewBox="0 0 320 96" role="img" aria-label="red skill button frame">
  <defs>
    <linearGradient id="panel" x1="0" x2="1" y1="0" y2="1">
      <stop offset="0" stop-color="#2b0610"/>
      <stop offset=".56" stop-color="#080a12"/>
      <stop offset="1" stop-color="#17030a"/>
    </linearGradient>
    <linearGradient id="accent" x1="0" x2="1">
      <stop offset="0" stop-color="#ff334f"/>
      <stop offset="1" stop-color="#b90f26"/>
    </linearGradient>
    <linearGradient id="gold" x1="0" x2="1">
      <stop offset="0" stop-color="#fff0a3"/>
      <stop offset=".45" stop-color="#f7c64a"/>
      <stop offset="1" stop-color="#9c6718"/>
    </linearGradient>
    <filter id="shadow" x="-20%" y="-40%" width="140%" height="180%">
      <feDropShadow dx="0" dy="6" stdDeviation="4" flood-color="#000000" flood-opacity=".55"/>
      <feDropShadow dx="0" dy="0" stdDeviation="6" flood-color="#ff334f" flood-opacity=".28"/>
    </filter>
  </defs>
  <path d="M18 10 H298 L312 30 V70 L292 86 H8 L18 10 Z" fill="#050711" opacity=".78" filter="url(#shadow)"/>
  <path d="M26 14 H296 L306 30 V67 L288 82 H14 L26 14 Z" fill="url(#gold)"/>
  <path d="M31 20 H286 L296 32 V63 L282 76 H24 L31 20 Z" fill="url(#panel)"/>
  <path d="M31 20 H112 L88 76 H24 Z" fill="url(#accent)"/>
  <path d="M116 20 H286 L296 32 V63 L282 76 H98 Z" fill="#050711" opacity=".78"/>
  <path d="M42 28 H96 L88 38 H38 Z M36 48 H92 L84 58 H32 Z" fill="#ffffff" opacity=".16"/>
  <path d="M238 24 L282 24 L290 32 L274 32 L267 40 L228 40 Z" fill="#ffffff" opacity=".1"/>
  <path d="M31 20 H286 L296 32 V63 L282 76 H24 L31 20 Z" fill="none" stroke="#fff7c8" stroke-width="2.5" opacity=".86"/>
</svg>
