<svg xmlns="http://www.w3.org/2000/svg" viewBox="0 0 1400 420" role="img" aria-label="OISIITOFU COSMIC FLAVOR">
  <defs>
    <radialGradient id="space" cx="50%" cy="48%" r="65%">
      <stop offset="0" stop-color="#2b123f"/>
      <stop offset=".46" stop-color="#12062b"/>
      <stop offset="1" stop-color="#020617"/>
    </radialGradient>
    <linearGradient id="cream" x1="0" y1="0" x2="0" y2="1">
      <stop offset="0" stop-color="#fffdf1"/>
      <stop offset=".52" stop-color="#ffe6aa"/>
      <stop offset="1" stop-color="#d8913c"/>
    </linearGradient>
    <linearGradient id="cosmicText" x1="0" y1="0" x2="0" y2="1">
      <stop offset="0" stop-color="#ffffff"/>
      <stop offset=".34" stop-color="#fff176"/>
      <stop offset=".68" stop-color="#ff8f2a"/>
      <stop offset="1" stop-color="#ff304d"/>
    </linearGradient>
    <linearGradient id="aura" x1="0" y1="0" x2="1" y2="1">
      <stop offset="0" stop-color="#22d3ee"/>
      <stop offset=".5" stop-color="#f9c74f"/>
      <stop offset="1" stop-color="#ff304d"/>
    </linearGradient>
    <filter id="glow" x="-30%" y="-35%" width="160%" height="170%">
      <feDropShadow dx="0" dy="12" stdDeviation="0" flood-color="#000" flood-opacity=".82"/>
      <feDropShadow dx="0" dy="0" stdDeviation="16" flood-color="#fff176" flood-opacity=".86"/>
      <feDropShadow dx="0" dy="0" stdDeviation="38" flood-color="#22d3ee" flood-opacity=".5"/>
      <feDropShadow dx="0" dy="0" stdDeviation="58" flood-color="#ff304d" flood-opacity=".38"/>
    </filter>
  </defs>
  <path d="M54 126 1242 36l120 82-100 192-1138 64L18 268z" fill="url(#space)" stroke="#fff8c2" stroke-width="16"/>
  <path d="M118 154 1168 74l-46 54 142-10-58 104 86 50-1090 64 44-58-144 14 68-120z" fill="#050711" opacity=".68"/>
  <g opacity=".95">
    <circle cx="1090" cy="102" r="12" fill="#fff8c2"/>
    <circle cx="1172" cy="178" r="8" fill="#22d3ee"/>
    <circle cx="914" cy="70" r="7" fill="#ffffff"/>
    <circle cx="1020" cy="294" r="10" fill="#f9c74f"/>
    <path d="M1068 236c74-40 142-18 202 20-84 12-140 44-204 74-48 22-98 12-130-18 42-26 76-44 132-76z" fill="url(#aura)" opacity=".28"/>
  </g>
  <g filter="url(#glow)">
    <path d="M122 106 282 76l122 72-28 158-182 38-122-92z" fill="url(#cream)" stroke="#fffdf1" stroke-width="12"/>
    <path d="M170 134 276 114l78 48-20 90-116 24-72-56z" fill="#fff8da" opacity=".8"/>
    <circle cx="186" cy="184" r="11" fill="#4b2b16"/>
    <circle cx="292" cy="166" r="11" fill="#4b2b16"/>
    <path d="M200 244c36 28 80 22 100-12" fill="none" stroke="#7a371a" stroke-width="11" stroke-linecap="round"/>
    <path d="M104 98c34-54 78-46 118-14-50 10-74 38-78 86-14-26-28-44-40-72z" fill="#82c46f" stroke="#fff8c2" stroke-width="7"/>
    <ellipse cx="254" cy="68" rx="38" ry="16" fill="#fffdf1" opacity=".72"/>
    <path d="M88 310c76-48 180-30 274 0" fill="none" stroke="url(#aura)" stroke-width="13" stroke-linecap="round" opacity=".9"/>
  </g>
  <g opacity=".28" stroke="#ffffff" stroke-width="7">
    <path d="M450 78 402 330"/>
    <path d="M598 66 548 322"/>
    <path d="M746 54 696 312"/>
    <path d="M894 46 844 300"/>
    <path d="M1042 40 992 288"/>
  </g>
  <text x="810" y="170" text-anchor="middle" font-family="Impact, Arial Black, sans-serif" font-size="112" font-style="italic" font-weight="900" fill="url(#cosmicText)" stroke="#050711" stroke-width="13" paint-order="stroke" filter="url(#glow)">OISIITOFU</text>
  <text x="812" y="274" text-anchor="middle" font-family="Impact, Arial Black, sans-serif" font-size="108" font-style="italic" font-weight="900" fill="url(#aura)" stroke="#050711" stroke-width="12" paint-order="stroke" filter="url(#glow)">COSMIC FLAVOR</text>
  <text x="812" y="336" text-anchor="middle" font-family="Arial Black, sans-serif" font-size="32" font-weight="900" fill="#fffdf1">おいしいとうふは宇宙味</text>
</svg>
