<svg xmlns="http://www.w3.org/2000/svg" viewBox="0 0 1400 420" role="img" aria-label="KENTO VIRTUAL OVERDRIVE">
  <defs>
    <linearGradient id="panel" x1="0" y1="0" x2="1" y2="1">
      <stop offset="0" stop-color="#130022"/>
      <stop offset=".36" stop-color="#4c1d95"/>
      <stop offset=".7" stop-color="#171044"/>
      <stop offset="1" stop-color="#020617"/>
    </linearGradient>
    <linearGradient id="purpleText" x1="0" y1="0" x2="0" y2="1">
      <stop offset="0" stop-color="#ffffff"/>
      <stop offset=".3" stop-color="#f0abfc"/>
      <stop offset=".68" stop-color="#a855f7"/>
      <stop offset="1" stop-color="#4c1d95"/>
    </linearGradient>
    <linearGradient id="cyber" x1="0" y1="0" x2="1" y2="1">
      <stop offset="0" stop-color="#e0fbff"/>
      <stop offset=".52" stop-color="#22d3ee"/>
      <stop offset="1" stop-color="#7c3aed"/>
    </linearGradient>
    <filter id="glow" x="-30%" y="-35%" width="160%" height="170%">
      <feDropShadow dx="0" dy="12" stdDeviation="0" flood-color="#000" flood-opacity=".82"/>
      <feDropShadow dx="0" dy="0" stdDeviation="18" flood-color="#c084fc" flood-opacity=".92"/>
      <feDropShadow dx="0" dy="0" stdDeviation="42" flood-color="#22d3ee" flood-opacity=".46"/>
    </filter>
  </defs>
  <path d="M66 110 1242 28l112 84-82 196-1148 70L20 266z" fill="url(#panel)" stroke="#f5d0fe" stroke-width="16"/>
  <path d="M120 144 1168 64l-42 54 134-10-54 112 82 46-1092 70 42-58-140 14 66-126z" fill="#070313" opacity=".68"/>
  <g opacity=".42" stroke="#22d3ee" stroke-width="6">
    <path d="M92 154h1210M126 226h1138M180 82v270M334 72v270M488 62v270M642 52v270M796 44v270M950 38v270M1104 32v270"/>
  </g>
  <g filter="url(#glow)">
    <path d="M118 90h214l52 54-36 206H90L50 144z" fill="#18051f" stroke="#f0abfc" stroke-width="10"/>
    <path d="M148 128c62-48 152-30 190 42-46-14-102 0-142 30-16 12-34 8-46-4-16-16-12-44-2-68z" fill="url(#purpleText)"/>
    <circle cx="172" cy="228" r="22" fill="#22d3ee"/>
    <circle cx="284" cy="228" r="22" fill="#22d3ee"/>
    <path d="M182 292c46 34 104 32 146-4" fill="none" stroke="#f5d0fe" stroke-width="12" stroke-linecap="round"/>
    <path d="M356 84 444 40l-28 94 92-12-86 66 30 96-92-58-82 64 28-100-86-58 102-8z" fill="url(#cyber)" stroke="#050711" stroke-width="8"/>
    <path d="M92 338c94-56 246-38 352 0" fill="none" stroke="url(#cyber)" stroke-width="13" stroke-linecap="round"/>
  </g>
  <g opacity=".76">
    <path d="M1134 76h86v24h-86zM1098 118h148v18h-148zM1160 154h86v20h-86z" fill="#f0abfc"/>
    <path d="M1040 306h118v18h-118zM1014 340h168v16h-168z" fill="#22d3ee"/>
  </g>
  <text x="836" y="172" text-anchor="middle" font-family="Impact, Arial Black, sans-serif" font-size="116" font-style="italic" font-weight="900" fill="url(#purpleText)" stroke="#050711" stroke-width="14" paint-order="stroke" filter="url(#glow)">KENTO</text>
  <text x="842" y="278" text-anchor="middle" font-family="Impact, Arial Black, sans-serif" font-size="100" font-style="italic" font-weight="900" fill="url(#cyber)" stroke="#050711" stroke-width="12" paint-order="stroke" filter="url(#glow)">VIRTUAL OVERDRIVE</text>
  <text x="842" y="338" text-anchor="middle" font-family="Arial Black, sans-serif" font-size="32" font-weight="900" fill="#f5d0fe">PURPLE STREAMER SPOTLIGHT</text>
</svg>
